<svg width="82" height="82" viewBox="0 0 82 82" fill="none" xmlns="http://www.w3.org/2000/svg">
<path fill-rule="evenodd" clip-rule="evenodd" d="M41 82C63.6437 82 82 63.6437 82 41C82 18.3563 63.6437 0 41 0C18.3563 0 0 18.3563 0 41C0 58.1985 10.5895 72.9237 25.604 79.0112C25.2949 77.5985 24.8792 75.24 24.8792 73.3684C24.8792 70.5759 25.5139 65.7523 26.7832 60.6749C27.7987 56.613 29.9143 48.2353 30.8451 44.5542C29.9143 42.7348 28.4334 38.2074 29.9566 34.6533C31.8606 30.2105 34.3993 26.4025 40.1114 28.9412C44.9874 31.1083 42.7412 36.9752 40.9528 41.6466C40.6461 42.4476 40.3529 43.2135 40.1114 43.9195C38.4612 48.743 38.2074 52.678 42.3962 54.3282C46.5851 55.9783 51.5355 53.6935 54.0742 50.5201C56.6129 47.3468 59.7863 38.0805 58.2631 32.1146C56.7399 26.1486 55.3436 23.8638 47.0928 20.3096C38.842 16.7554 26.7832 22.9752 22.9752 32.1146C19.9287 39.426 23.5675 44.4696 25.7677 46.0774L24.8792 51.7895C22.3405 52.5088 15.6031 48.1313 14.4705 42.0155C11.9319 28.3065 19.5479 20.6904 28.0526 16.2477C36.5572 11.805 52.8049 12.4396 60.8018 19.4211C68.7987 26.4025 71.2105 38.8421 64.8637 50.5201C58.517 62.1982 48.743 61.9443 45.1888 61.6904C42.3454 61.4873 38.0804 58.8132 36.3033 57.5016C36.0072 58.9825 35.2117 62.7059 34.3993 65.7523C33.3838 69.5604 31.4798 73.3684 29.9566 75.5263C28.9419 76.9638 27.3288 78.4423 26.3044 79.2877C30.8664 81.0398 35.8211 82 41 82Z" fill="#DDAFA0"/>
</svg>
