<svg width="94" height="83" viewBox="0 0 94 83" fill="none" xmlns="http://www.w3.org/2000/svg">
<path fill-rule="evenodd" clip-rule="evenodd" d="M26.4966 12.302C26.4966 5.5078 32.0044 0 38.7987 0H55.8322C62.6264 0 68.1342 5.5078 68.1342 12.302C68.1342 12.4075 68.1329 12.5126 68.1303 12.6174H74C85.0457 12.6174 94 21.5718 94 32.6175V62.0134C94 73.0591 85.0457 82.0134 74 82.0134H20C8.9543 82.0134 0 73.0591 0 62.0134V32.6174C0 21.5718 8.95431 12.6174 20 12.6174H26.5006C26.498 12.5126 26.4966 12.4075 26.4966 12.302ZM47 64.9799C56.93 64.9799 64.9799 56.93 64.9799 47C64.9799 37.07 56.93 29.0201 47 29.0201C37.07 29.0201 29.0201 37.07 29.0201 47C29.0201 56.93 37.07 64.9799 47 64.9799Z" fill="#DDAFA0"/>
</svg>
