<svg width="70" height="83" viewBox="0 0 70 83" fill="none" xmlns="http://www.w3.org/2000/svg">
<path fill-rule="evenodd" clip-rule="evenodd" d="M5.38462 43.1692C8.35846 43.1692 10.7692 45.5943 10.7692 48.5859V71.3359H59.2308V48.5859C59.2308 45.5943 61.6415 43.1692 64.6154 43.1692C67.5892 43.1692 70 45.5943 70 48.5859V76.7525C70 79.7441 67.5892 82.1692 64.6154 82.1692H5.38462C2.41077 82.1692 0 79.7441 0 76.7525V48.5859C0 45.5943 2.41077 43.1692 5.38462 43.1692Z" fill="#DDAFA0"/>
<path fill-rule="evenodd" clip-rule="evenodd" d="M39.8462 5.38462C39.8462 2.41077 37.4354 0 34.4616 0C31.4877 0 29.077 2.41077 29.077 5.38462V38.6927L21.0383 30.654C18.9355 28.5512 15.5261 28.5512 13.4233 30.654C11.3205 32.7568 11.3205 36.1662 13.4233 38.269L30.6541 55.4998C32.7569 57.6026 36.1662 57.6026 38.2691 55.4998L55.4998 38.269C57.6027 36.1662 57.6027 32.7568 55.4998 30.654C53.397 28.5512 49.9877 28.5512 47.8848 30.654L39.8462 38.6927V5.38462Z" fill="#DDAFA0"/>
</svg>
