<svg width="52" height="49" viewBox="0 0 52 49" fill="none" xmlns="http://www.w3.org/2000/svg">
<path fill-rule="evenodd" clip-rule="evenodd" d="M0 37.7355H25.1271C25.3398 37.7355 25.5496 37.7198 25.7564 37.689C25.9632 37.7198 26.173 37.7355 26.3857 37.7355H51.5128C45.4008 34.7874 43.1371 26.5721 43.1371 19.6539C43.1371 8.45119 36.1196 0 26.3857 0C26.1718 0 25.9621 0.00887603 25.7564 0.0263558C25.5507 0.00887603 25.341 0 25.1271 0C15.3932 0 8.37571 8.45119 8.37571 19.6539C8.37571 26.5721 6.112 34.7874 0 37.7355ZM25.5128 49C29.9311 49 33.5128 45.4183 33.5128 41H17.5128C17.5128 45.4183 21.0945 49 25.5128 49Z" fill="#DDAFA0"/>
</svg>
