<svg width="79" height="83" viewBox="0 0 79 83" fill="none" xmlns="http://www.w3.org/2000/svg">
<path fill-rule="evenodd" clip-rule="evenodd" d="M61.1364 30.7374C61.1364 37.1735 59.1473 43.145 55.7504 48.0708L76.7334 69.0538C79.7555 72.076 79.7555 76.9759 76.7334 79.9981C73.7112 83.0202 68.8113 83.0202 65.7891 79.9981L43.9967 58.2057C39.9434 60.191 35.3859 61.3056 30.5682 61.3056C13.6858 61.3056 0 47.6197 0 30.7374C0 13.855 13.6858 0.169189 30.5682 0.169189C47.4505 0.169189 61.1364 13.855 61.1364 30.7374ZM30.5682 53.5668C43.1765 53.5668 53.3976 43.3457 53.3976 30.7374C53.3976 18.129 43.1765 7.90794 30.5682 7.90794C17.9599 7.90794 7.73879 18.129 7.73879 30.7374C7.73879 43.3457 17.9599 53.5668 30.5682 53.5668Z" fill="#DDAFA0"/>
</svg>
